<svg width="28" height="26" viewBox="0 0 28 26" fill="none" xmlns="http://www.w3.org/2000/svg">
<path d="M5.66669 6.33337H24.0534C24.4259 6.33339 24.7943 6.41147 25.1349 6.56258C25.4754 6.71369 25.7805 6.93449 26.0305 7.21073C26.2805 7.48697 26.4698 7.81252 26.5863 8.16641C26.7027 8.5203 26.7438 8.89466 26.7067 9.26537L25.9067 17.2654C25.8409 17.9234 25.5329 18.5335 25.0426 18.9772C24.5523 19.4209 23.9146 19.6667 23.2534 19.6667H10.52C9.90332 19.667 9.30559 19.4534 8.82861 19.0625C8.35164 18.6716 8.02489 18.1274 7.90402 17.5227L5.66669 6.33337Z" stroke="#1D1D1D" stroke-width="2" stroke-linejoin="round"/>
<path d="M20.3334 25H23M5.66669 6.33333L4.58669 2.00933C4.51446 1.721 4.34796 1.46508 4.11363 1.28221C3.8793 1.09934 3.59059 1.00001 3.29335 1H1.66669L5.66669 6.33333ZM9.66669 25H12.3334H9.66669Z" stroke="#1D1D1D" stroke-width="2" stroke-linecap="round" stroke-linejoin="round"/>
</svg>
