<svg width="61" height="37" viewBox="0 0 61 37" fill="none" xmlns="http://www.w3.org/2000/svg">
<path d="M43.8366 20.3172C48.2336 21.4958 51.4064 23.0968 53.0107 24.8499C53.8184 25.7326 54.1813 26.601 54.1824 27.4274C54.1834 28.2537 53.8227 29.122 53.0175 30.0046C51.3873 31.7914 48.1276 33.421 43.6018 34.6071C39.0967 35.7876 33.637 36.4504 27.9846 36.4973C22.3326 36.5442 16.7875 35.9727 12.1241 34.8672C7.4435 33.7577 3.94958 32.1808 2.06104 30.4057C1.1233 29.5243 0.637615 28.6475 0.525673 27.8135C0.415027 26.989 0.659205 26.13 1.33366 25.2518C2.68104 23.4973 5.6085 21.8522 9.83301 20.6024L10.5528 21.2254C14.6255 24.7505 19.6543 26.9853 25.0002 27.6456C26.563 27.8387 28.1465 27.7821 29.6916 27.4779L30.6626 27.2867C35.0052 26.4318 39.0497 24.459 42.3968 21.563L42.0696 21.1849L42.3968 21.563L43.8366 20.3172Z" stroke="black"/>
<path d="M4.86066 3.1897L7.2992 13.1111C8.82167 19.3053 13.2057 24.4028 19.1024 26.8351V26.8351C23.9901 28.8512 29.4771 28.8512 34.3648 26.8351L34.6701 26.7092C40.417 24.3387 44.8034 19.5234 46.6292 13.5809L49.8217 3.1897" stroke="black" stroke-linecap="round"/>
<path d="M47.9989 8.29306L52.8846 6.01319C53.2685 5.83404 53.6877 5.74134 54.1138 5.74134L55.4427 5.74134C57.2754 5.74134 58.7093 7.4034 58.4596 9.23836L57.8504 13.7159C57.7658 14.338 57.4908 14.9134 57.0639 15.3616L54.2635 18.3018C53.4175 19.1901 52.1081 19.4471 50.9685 18.9486L45.5687 16.5863" stroke="black"/>
<path d="M47.1582 7.46844C43.8441 21.783 35.6407 25.5172 26.7685 25.5172C17.8963 25.5172 9.34371 21.1606 7.61464 8.71317C5.01864 -1.86711 18.6117 1.24474 27.8798 0C40.855 1.24474 48.8872 0 47.1582 7.46844Z" fill="#FF902B"/>
</svg>
