<svg xmlns="http://www.w3.org/2000/svg" version="1.1" xmlns:xlink="http://www.w3.org/1999/xlink" xmlns:svgjs="http://svgjs.dev/svgjs" width="100%" height="100%" viewBox="0 0 1000 600"><rect width="1000" height="600" x="0" y="0" fill="#2b3252"/><g><rect width="333.3333333333333" height="333.3333333333333" y="104.49999984025786" fill="#fad744" transform="matrix(1.5192437855257532,0,0,1.5192437855257532,0,-111.96827613597883)" x="82.27779388427734"/><path d="M229.7900568706979 346.1666713637269L209.10874287398096 346.1666713637269L209.10874287398096 196.16667320917603L288.78017910402355 196.16667320917603L286.3915478090811 212.7056772387143L229.7900568706979 212.7056772387143L229.7900568706979 263.8647171253299L278.7721163366065 263.8647171253299L278.7721163366065 280.1920702806327L229.7900568706979 280.1920702806327L229.7900568706979 346.1666713637269Z " fill="#2b3252" transform="matrix(1.5192437855257532,0,0,1.5192437855257532,0,-111.96827613597883)"/><path d="M551.7500184184175 210.9722269192824Q543.3333517517509 210.9722269192824 539.7500184184175 214.66667136372686Q536.1389073073065 218.36111580817132 536.1389073073065 226.16667136372686L536.1389073073065 226.16667136372686L536.1389073073065 240.777782474838L561.7500184184175 240.777782474838L559.7500184184175 254.9722269192824L536.1389073073065 254.9722269192824L536.1389073073065 346.1666713637269L517.7500184184175 346.1666713637269L517.7500184184175 254.9722269192824L498.94446286286205 254.9722269192824L498.94446286286205 240.777782474838L517.7500184184175 240.777782474838L517.7500184184175 226.3611158081713Q517.7500184184175 212.77778247483795 526.4444628628621 204.4722269192824Q535.1389073073065 196.16667136372686 550.7500184184175 196.16667136372686L550.7500184184175 196.16667136372686Q557.9444628628621 196.16667136372686 563.6389073073065 197.4722269192824Q569.333351751751 198.77778247483798 575.9444628628621 201.55556025261575L575.9444628628621 201.55556025261575L570.1389073073065 214.97222691928243Q561.1389073073065 210.9722269192824 551.7500184184175 210.9722269192824L551.7500184184175 210.9722269192824Z " fill="#fad744" transform="matrix(1.5192437855257532,0,0,1.5192437855257532,0,-111.96827613597883)"/></g></svg>