<svg width="40" height="40" viewBox="0 0 40 40" fill="none" xmlns="http://www.w3.org/2000/svg">
<path d="M40 4.73812C38.8861 6.77777 37.5195 8.51648 35.9003 9.95424C35.9163 10.3398 35.9243 10.7757 35.9243 11.2617C35.9243 13.9623 35.6044 16.6662 34.9648 19.3734C34.3251 22.0805 33.348 24.6718 32.0334 27.1471C30.7189 29.6224 29.153 31.8153 27.3359 33.7258C25.5187 35.6363 23.3344 37.1596 20.7829 38.2958C18.2314 39.432 15.4969 40 12.5793 40C8.02605 40 3.83291 38.4868 -6.10352e-05 35.4603C0.680247 35.5535 1.33272 35.6001 1.95736 35.6001C5.76126 35.6001 9.15876 34.1578 12.1498 31.273C10.3763 31.233 8.78787 30.5609 7.38469 29.2567C5.98151 27.9525 5.01587 26.286 4.48778 24.2572C5.00976 24.3796 5.52494 24.4408 6.03332 24.4408C6.7651 24.4408 7.48515 24.3233 8.19349 24.0883C6.30073 23.6216 4.73053 22.4611 3.48288 20.6067C2.23528 18.7523 1.61147 16.612 1.61147 14.1858V14.0607C2.77325 14.8526 4.01248 15.2738 5.32914 15.3244C4.20789 14.4042 3.3189 13.2042 2.66218 11.7244C2.00542 10.2447 1.67704 8.64332 1.67704 6.92036C1.67704 5.10321 2.04693 3.41111 2.7867 1.84404C4.84503 4.95356 7.33914 7.43879 10.269 9.29972C13.1989 11.1607 16.3422 12.1942 19.6987 12.4003C19.5556 11.6658 19.4839 10.8993 19.4836 10.1009C19.4836 7.31299 20.285 4.93253 21.8879 2.95952C23.4907 0.986507 25.4245 0 27.6891 0C30.0601 0 32.0573 1.06281 33.6805 3.18844C35.5351 2.7362 37.2717 1.91821 38.8901 0.73448C38.2666 3.15021 37.0651 5.01379 35.2856 6.3252C36.9211 6.08595 38.4925 5.55692 39.9999 4.73812H40Z" fill="#1D1D1D"/>
</svg>
